# xmcd CD database file
# Copyright (C) 1997 Ti Kan
# 
# Track frame offsets:
#     150
#     28505
#     39030
#     52070
#     62403
#     76803
# 
# Disc length: 1285 seconds
# 
# Revision: 1
# Processed by: cddbd v1.4b41PL1 Copyright (c) Steve Scherf et al.
# Submitted via: DiscPlay 4.0.0
# 
DISCID=3b050306
DTITLE=Two Nice Girls - Like A Version
DYEAR=1900
DGENRE=
TTITLE0=I Feel (Like Makin') Love
TTITLE1=Bang Bang
TTITLE2=Top of the World
TTITLE3=Speed Racer
TTITLE4=Cotton Crown
TTITLE5=I Spent My Last $10.00 (on Birth Control and Beer)
EXTD=
EXTT0=
EXTT1=
EXTT2=
EXTT3=
EXTT4=
EXTT5=
PLAYORDER=
